<svg id="Capa_1" data-name="Capa 1" xmlns="http://www.w3.org/2000/svg" viewBox="0 0 725.05 422.76"><defs><style>.cls-1{fill:gray;}.cls-2{fill:#ffa700;}</style></defs><title>2taple</title><path class="cls-1" d="M303.9,140.93a22.1,22.1,0,0,1-7.84-1.45c-2.53-1,.4-7.45-1.62-9.24-3-2.64-7.08-1.85-10.5-3.91s-9.45-4.24-13.18-5.65-8.89-3.63-12.81-4.34-8.37,2.5-12.35,2.5a66.33,66.33,0,0,0,0,132.66h88.34c.73,0,1.46,0,2.19.08s1.45.17,2.16.3a19.41,19.41,0,0,1,2.13.51,18.6,18.6,0,0,1,2.06.72,21,21,0,0,1,2,.91c.65.34,1.27.71,1.88,1.11s1.2.83,1.77,1.29,1.11.95,1.63,1.46a20.32,20.32,0,0,1,1.47,1.61c.47.56.91,1.15,1.32,1.75s.78,1.23,1.13,1.87.66,1.31.94,2a21,21,0,0,1,.74,2.06c.21.7.39,1.4.54,2.12s.25,1.44.32,2.16.11,1.46.11,2.19,0,1.46-.11,2.18-.18,1.45-.32,2.17-.33,1.42-.54,2.12-.46,1.38-.74,2.06-.6,1.33-.94,2-.73,1.27-1.13,1.87a24.16,24.16,0,0,1-2.79,3.37c-.52.51-1.06,1-1.63,1.46s-1.16.88-1.77,1.29a19.63,19.63,0,0,1-1.88,1.1,22.6,22.6,0,0,1-4.05,1.64q-1.05.3-2.13.51c-.71.13-1.44.23-2.16.29a20,20,0,0,1-2.19.08H245.6a110.55,110.55,0,0,1,0-221.1q5,0,9.94.44c3.3.3,6.59.75,9.85,1.34s6.5,1.34,9.7,2.22,6.35,1.92,9.46,3.09,6.15,2.49,9.14,3.93,5.9,3,8.75,4.75,5.61,3.55,8.28,5.51,5.27,4,7.76,6.24C333.81,115.63,324.31,140.93,303.9,140.93Z"/><path class="cls-2" d="M481.87,38c-9.28,0-18.7,7.12-22.89,18.2l.53,81.3c.62,46-.18,65.13-.06,84.78a105.52,105.52,0,0,0-.59,12.5C459.64,292.31,492,339,548.71,338.23l33.08.1a19.91,19.91,0,0,0,2-.12c.67-.07,1.33-.15,2-.28s1.32-.33,2-.53a18.94,18.94,0,0,0,1.91-.69,18.56,18.56,0,0,0,1.85-.9c.59-.33,1.16-.68,1.72-1.06s1.11-.81,1.63-1.25a22,22,0,0,0,2.86-2.93c.42-.53.83-1.08,1.2-1.65s.7-1.17,1-1.78a20.58,20.58,0,0,0,1.51-3.83,19.44,19.44,0,0,0,.49-2,19.38,19.38,0,0,0,.34-4.11c0-.69,0-1.38-.12-2.06s-.2-1.35-.34-2-.32-1.33-.52-2-.44-1.3-.71-1.93-.56-1.24-.89-1.84-.69-1.21-1.08-1.78-.82-1.1-1.26-1.62-.9-1-1.39-1.5-1-.91-1.53-1.34-1.09-.84-1.66-1.21-1.15-.72-1.76-1-1.24-.56-1.87-.81-1.26-.47-1.91-.66a20,20,0,0,0-4-.71,6.28,6.28,0,0,0-.75,0c-.51,0-1.28,0-1.28,0l-32.4-.1c-32.31.44-45.22-28-48.42-60,.15-1.55.15-40.92-.05-39.9s.05.64.05,0c0-16.46.59-38.69.59-38.69s.37-4.57.64-31.8.83-66.71.83-66.71a38.74,38.74,0,0,0-1.75-7.07C496.21,42.3,489.08,38,481.87,38Z"/><path class="cls-2" d="M112.66,81.14h.84l-2,0A10.29,10.29,0,0,1,112.66,81.14Z"/><path class="cls-2" d="M138.14,80.91h.45C139.11,80.9,123.9,80.34,138.14,80.91Z"/><path class="cls-2" d="M199.57,315.14c-.08-.68-.2-1.36-.34-2a20.39,20.39,0,0,0-.54-2c-.21-.66-.44-1.3-.71-1.94s-.58-1.24-.91-1.84-.7-1.22-1.09-1.78-.84-1.1-1.29-1.63a19.73,19.73,0,0,0-1.4-1.5c-.5-.48-1-.91-1.56-1.34s-1.11-.85-1.69-1.22-1.17-.72-1.78-1-1.27-.56-1.91-.81a18.45,18.45,0,0,0-1.94-.66c-.66-.18-1.35-.35-2-.47a19.74,19.74,0,0,0-2-.25,6.56,6.56,0,0,0-.76,0h-1.3l-32.92-.1c-32.84.45-60.56-24.25-63.82-56.38.16-1.55.35-3.21.35-4.25-.06-28.33,1.17-24.31,1.09-40.81s-.21-8.47-.34-26.37,0-15,.28-42.32c0-2.76.06-5.64.09-8.6,4.18.1,16-.27,26.76.16.28,0,20.21,0,20.15.26l-20.31-.15c.18,0-.63.17-.46.17l29.75.13a12.55,12.55,0,0,0,1.62-.07,14.85,14.85,0,0,0,1.61-.23,14,14,0,0,0,1.56-.47,19.42,19.42,0,0,0,3-1.38,16.47,16.47,0,0,0,1.39-1,16.84,16.84,0,0,0,1.28-1.1c.42-.4.83-.8,1.21-1.24a16.5,16.5,0,0,0,1.07-1.39c.34-.47.68-1,1-1.49s.56-1,.81-1.57.47-1.13.67-1.7.38-1.16.53-1.76a17.94,17.94,0,0,0,.37-1.8c.11-.61.19-1.19.24-1.8s.07-1.24.07-1.86,0-1.23-.1-1.85-.14-1.24-.25-1.85-.25-1.18-.41-1.77-.37-1.19-.58-1.76-.43-1.12-.69-1.66-.54-1-.85-1.55a16.9,16.9,0,0,0-1-1.5c-.35-.47-.71-.93-1.1-1.36s-.79-.85-1.21-1.23-.86-.73-1.31-1.07a16.61,16.61,0,0,0-1.42-.94,15.62,15.62,0,0,0-1.47-.75c-.5-.22-1-.44-1.53-.61a15.12,15.12,0,0,0-1.6-.43,10.63,10.63,0,0,0-1.59-.2l-2.05-.08-24.64.22,15.8.26h-.2l-45.62-.34c.16-12.46.29-21.54.29-21.54A38.44,38.44,0,0,0,82,52.41C77.41,42.31,70.17,38,62.84,38c-9.43,0-19,7.14-23.25,18.25l.53,81.5c.63,46.13-.19,65.29-.07,85a105.93,105.93,0,0,0-.59,12.53,104.43,104.43,0,0,0,105.78,103l33.61.1a20.16,20.16,0,0,0,2.06-.12,19.45,19.45,0,0,0,2-.29,16.8,16.8,0,0,0,2-.53c.66-.2,1.31-.42,1.94-.68s1.27-.58,1.88-.91,1.18-.68,1.75-1.06,1.12-.81,1.65-1.25a20.44,20.44,0,0,0,1.53-1.41,18.15,18.15,0,0,0,1.38-1.53c.43-.54.84-1.08,1.22-1.66a19.6,19.6,0,0,0,1-1.78,20.4,20.4,0,0,0,1.53-3.84c.19-.66.37-1.32.5-2a20.78,20.78,0,0,0,.28-2.06,23.72,23.72,0,0,0-.06-4.13Z"/><path class="cls-2" d="M384.18,302.38s5.66-5.24,6.69-7.74.43-9.41,2.27-11.38c2.73-2.92,2.05-7,4.2-10.38s4.5-9.34,6-13,3.87-8.79,4.69-12.69-2.26-8.44-2.16-12.42a66.33,66.33,0,0,0-132.61-3.66l-2.43,88.31c0,.73-.06,1.46-.14,2.19s-.21,1.44-.36,2.15a19.33,19.33,0,0,1-.57,2.11,21,21,0,0,1-.77,2c-.29.67-.62,1.32-1,2s-.75,1.25-1.16,1.85-.87,1.17-1.34,1.73-1,1.08-1.5,1.59-1.08,1-1.66,1.43-1.17.87-1.78,1.26-1.25.75-1.91,1.08-1.31.62-2,.89a21.77,21.77,0,0,1-2.07.68c-.71.2-1.42.35-2.14.48s-1.44.21-2.17.26-1.46.07-2.19.05-1.46-.08-2.18-.17-1.44-.22-2.15-.38a18.85,18.85,0,0,1-2.11-.6c-.69-.23-1.37-.49-2-.79s-1.31-.64-1.94-1a20.57,20.57,0,0,1-1.84-1.18c-.6-.43-1.17-.88-1.72-1.36s-1.07-1-1.57-1.52-1-1.09-1.41-1.67a22.17,22.17,0,0,1-2.3-3.72,20.76,20.76,0,0,1-.86-2,22.21,22.21,0,0,1-1.11-4.23c-.12-.72-.19-1.44-.24-2.17s0-1.46,0-2.19l2.44-88.31a110.55,110.55,0,0,1,221,6.1q-.13,5-.72,9.92c-.39,3.3-.92,6.57-1.61,9.82s-1.51,6.46-2.49,9.63-2.09,6.3-3.35,9.37-2.65,6.08-4.18,9-3.19,5.82-5,8.62-3.7,5.5-5.74,8.13-4.19,5.15-6.45,7.57C406.66,323,383.62,322.78,384.18,302.38Z"/><path class="cls-1" d="M247.76,118.78c35.3-.46,64.3,28.83,64.77,65.42l1.15,88.34c0,.73,0,1.46.11,2.18s.17,1.45.31,2.17.32,1.42.52,2.11.45,1.39.72,2.06a20.63,20.63,0,0,0,.91,2,20.29,20.29,0,0,0,1.09,1.87c.4.61.82,1.19,1.27,1.75a22.52,22.52,0,0,0,3,3.07,21.1,21.1,0,0,0,1.7,1.29c.59.4,1.2.77,1.82,1.11a19.79,19.79,0,0,0,1.92.91,17.49,17.49,0,0,0,2,.72c.68.2,1.36.37,2,.51a21,21,0,0,0,2.09.29c.7.07,1.41.09,2.11.09s1.4-.06,2.1-.14a21.19,21.19,0,0,0,2.09-.35c.68-.15,1.36-.34,2-.56a20.77,20.77,0,0,0,2-.77,21.08,21.08,0,0,0,1.89-1c.61-.35,1.21-.74,1.79-1.15s1.13-.86,1.67-1.33,1-1,1.53-1.5.95-1.08,1.39-1.65.84-1.17,1.22-1.78.72-1.25,1-1.9.6-1.31.86-2,.47-1.38.66-2.08.34-1.41.46-2.13a19.76,19.76,0,0,0,.26-2.17c.05-.73.07-1.46.05-2.18l-1.15-88.34c-.81-61-49.15-109.8-108-109S212.45,119.24,247.76,118.78Z"/><path class="cls-2" d="M405.38,246.49c-.51,35.3-30.59,63.48-67.18,62.94l-88.34-1.28c-.73,0-1.46,0-2.19,0s-1.45.14-2.17.26-1.43.27-2.13.46a19.14,19.14,0,0,0-2.07.66c-.68.25-1.35.54-2,.85s-1.29.67-1.9,1-1.21.79-1.78,1.22-1.13.9-1.65,1.38a19.8,19.8,0,0,0-1.5,1.54,21.14,21.14,0,0,0-1.34,1.66c-.12.18-.22.36-.34.54-1-1.15-1.94-2.33-2.91-3.6-.15-.2-.13,4.13-.09,10.32,0,.14-.09.28-.12.43a21,21,0,0,0-.36,2.08c-.08.7-.12,1.4-.13,2.11s0,1.4.07,2.1a18.13,18.13,0,0,0,.3,2.09c.07.41.19.81.29,1.22,0,5.21,0,10.72-.07,15.58,0,.32.57,22.79.25,22.72L227.64,350c0,.19-.21-.72-.2-.52l.63,33.54a15.75,15.75,0,0,0,.13,1.82,15.92,15.92,0,0,0,.31,1.81,15,15,0,0,0,.59,1.75,18.38,18.38,0,0,0,.76,1.7,17,17,0,0,0,.92,1.6,17.48,17.48,0,0,0,1.17,1.55,15.85,15.85,0,0,0,1.31,1.41,16.82,16.82,0,0,0,1.46,1.33c.52.42,1.08.8,1.64,1.17a20.43,20.43,0,0,0,1.76,1.05c.61.32,1.2.61,1.84.87s1.33.5,2,.71,1.35.4,2,.56,1.39.27,2.1.36a21,21,0,0,0,2.1.21c.71,0,1.43.05,2.15,0s1.43-.07,2.15-.16,1.44-.19,2.14-.34,1.36-.31,2-.51,1.38-.44,2-.7,1.28-.52,1.91-.83a19.17,19.17,0,0,0,1.77-1c.59-.36,1.17-.75,1.71-1.15s1.07-.84,1.56-1.29a18.36,18.36,0,0,0,1.39-1.4,18.9,18.9,0,0,0,1.21-1.5,18.69,18.69,0,0,0,1-1.63,20.65,20.65,0,0,0,1.51-3.42c.18-.59.34-1.21.46-1.81a11,11,0,0,0,.18-1.81c0-.84,0-1.6,0-2.31l-.91-27.77.12,17.83v-.24l-.18-19.79h.05v.65c0-.22,0-.43,0-.65l67,1c61,.87,111.1-46.1,112-104.94S405.9,211.18,405.38,246.49Z"/><path class="cls-2" d="M271.5,381.05v.51C271.54,382.15,271.78,365,271.5,381.05Z"/><path class="cls-2" d="M270.59,353.28v-1.54c0,.2,0,.39,0,.59Z"/><path class="cls-2" d="M699.14,259.54c-.14-.71-.32-1.41-.53-2.11a20.3,20.3,0,0,0-.71-2c-.27-.67-.57-1.32-.9-2a21.09,21.09,0,0,0-1.08-1.84c-.39-.6-.8-1.17-1.24-1.73s-.91-1.08-1.39-1.58-1-1-1.54-1.43a18.57,18.57,0,0,0-1.66-1.26c-.57-.39-1.16-.75-1.76-1.08a19.66,19.66,0,0,0-1.86-.88,18.44,18.44,0,0,0-1.93-.69q-1-.28-2-.48a19.68,19.68,0,0,0-4-.31L618,243.35c-46.24.93-60.08-11.66-63.55-29.4,19.25.18,47.82,1.07,69.13,1.29,66.88.69,96.38-58.92,59.39-112.36-8.8-12.7-28.35-28.41-73-28.41-56.7,0-96.17,33.6-96.17,94.37,0,85.26,0,118.53,104.12,118.53l61.17-1.2a19.57,19.57,0,0,0,2-.11,16.84,16.84,0,0,0,2-.33,19.07,19.07,0,0,0,2-.53,18.39,18.39,0,0,0,1.91-.74c.63-.28,1.24-.6,1.84-.94s1.17-.72,1.73-1.13a20.31,20.31,0,0,0,1.63-1.31,18.78,18.78,0,0,0,1.49-1.47c.48-.52.93-1.06,1.36-1.63s.82-1.15,1.19-1.76a18.86,18.86,0,0,0,1-1.87,21.44,21.44,0,0,0,.85-2,20.64,20.64,0,0,0,.67-2.06c.19-.7.34-1.4.47-2.12s.21-1.43.27-2.15.08-1.45.07-2.18-.05-1.45-.12-2.17S699.28,260.25,699.14,259.54Zm-144.27-91c-.63-36.58,24.65-49.62,58.79-49.62,20.26,0,34.56,6.81,40.91,16.59,8.86,13.62,12.33,40.36-31,39-14.52-.45-49.73-1-68.77-1.22C554.89,171.73,554.9,170.14,554.87,168.55Z"/></svg>