<?xml version="1.0" encoding="UTF-8"?>
<!DOCTYPE svg PUBLIC "-//W3C//DTD SVG 1.1//EN" "http://www.w3.org/Graphics/SVG/1.1/DTD/svg11.dtd">
<svg xmlns="http://www.w3.org/2000/svg" xmlns:xlink="http://www.w3.org/1999/xlink" version="1.1" width="650px" height="310px" viewBox="-0.5 -0.5 650 310"><defs/><g><path d="M 222.03 46.25 L 222.03 88.54" fill="none" stroke="#919191" stroke-width="3" stroke-miterlimit="10" pointer-events="stroke"/><path d="M 487.07 129.22 L 613.4 35.78" fill="none" stroke="#919191" stroke-width="3" stroke-miterlimit="10" pointer-events="stroke"/><path d="M 40.21 25.1 L 206.92 31.15" fill="none" stroke="#919191" stroke-width="3" stroke-miterlimit="10" pointer-events="stroke"/><path d="M 309.81 259.11 L 175.27 192.87" fill="none" stroke="#919191" stroke-width="3" stroke-miterlimit="10" pointer-events="stroke"/><path d="M 476.39 155 L 331.17 259.11" fill="none" stroke="#919191" stroke-width="3" stroke-miterlimit="10" pointer-events="stroke"/><path d="M 331.17 171.51 L 465.71 150.58" fill="none" stroke="#919191" stroke-width="3" stroke-miterlimit="10" pointer-events="stroke"/><path d="M 232.71 114.33 L 309.81 171.51" fill="none" stroke="#919191" stroke-width="3" stroke-miterlimit="10" pointer-events="stroke"/><path d="M 179.7 182.19 L 305.38 182.19" fill="none" stroke="#919191" stroke-width="3" stroke-miterlimit="10" pointer-events="stroke"/><path d="M 320.49 254.69 L 320.49 197.29" fill="none" stroke="#919191" stroke-width="3" stroke-miterlimit="10" pointer-events="stroke"/><path d="M 567.95 139.9 L 491.49 139.9" fill="none" stroke="#919191" stroke-width="3" stroke-miterlimit="10" pointer-events="stroke"/><path d="M 624.08 40.21 L 583.05 124.79" fill="none" stroke="#919191" stroke-width="3" stroke-miterlimit="10" pointer-events="stroke"/><path d="M 372.19 41.83 L 465.39 129.54" fill="none" stroke="#919191" stroke-width="3" stroke-miterlimit="10" pointer-events="stroke"/><path d="M 376.62 31.15 L 608.97 25.1" fill="none" stroke="#919191" stroke-width="3" stroke-miterlimit="10" pointer-events="stroke"/><path d="M 237.13 31.15 L 346.41 31.15" fill="none" stroke="#919191" stroke-width="3" stroke-miterlimit="10" pointer-events="stroke"/><path d="M 232.71 92.97 L 350.83 41.83" fill="none" stroke="#919191" stroke-width="3" stroke-miterlimit="10" pointer-events="stroke"/><path d="M 73.03 121.77 L 206.92 103.65" fill="none" stroke="#919191" stroke-width="3" stroke-miterlimit="10" pointer-events="stroke"/><path d="M 153.91 171.51 L 68.6 132.45" fill="none" stroke="#919191" stroke-width="3" stroke-miterlimit="10" pointer-events="stroke"/><path d="M 25.1 40.21 L 57.92 106.67" fill="none" stroke="#919191" stroke-width="3" stroke-miterlimit="10" pointer-events="stroke"/><path d="M 153.91 192.87 L 40.21 284.9" fill="none" stroke="#919191" stroke-width="3" stroke-miterlimit="10" pointer-events="stroke"/><path d="M 305.38 269.79 L 40.21 284.9" fill="none" stroke="#919191" stroke-width="3" stroke-miterlimit="10" pointer-events="stroke"/><path d="M 57.92 136.87 L 25.1 269.79" fill="none" stroke="#919191" stroke-width="3" stroke-miterlimit="10" pointer-events="stroke"/><path d="M 613.4 268.17 L 487.07 150.58" fill="none" stroke="#919191" stroke-width="3" stroke-miterlimit="10" pointer-events="stroke"/><path d="M 335.59 269.79 L 609.58 283.08" fill="none" stroke="#919191" stroke-width="3" stroke-miterlimit="10" pointer-events="stroke"/><path d="M 583.05 155 L 619.3 264.53" fill="none" stroke="#919191" stroke-width="3" stroke-miterlimit="10" pointer-events="stroke"/><path d="M 360.21 103.65 L 461.28 139.9" fill="none" stroke="#919191" stroke-width="3" stroke-miterlimit="10" pointer-events="stroke"/><path d="M 345.1 118.75 L 320.49 167.08" fill="none" stroke="#919191" stroke-width="3" stroke-miterlimit="10" pointer-events="stroke"/><path d="M 237.13 103.65 L 330 103.65" fill="none" stroke="#919191" stroke-width="3" stroke-miterlimit="10" pointer-events="stroke"/><path d="M 361.51 46.25 L 345.1 88.54" fill="none" stroke="#919191" stroke-width="3" stroke-miterlimit="10" pointer-events="stroke"/><ellipse cx="222.03" cy="31.15" rx="15.104166666666664" ry="15.104166666666664" fill="#994c00" stroke="none" pointer-events="all"/><ellipse cx="222.03" cy="103.65" rx="15.104166666666664" ry="15.104166666666664" fill="#ebbc8d" stroke="none" pointer-events="all"/><ellipse cx="164.59" cy="182.19" rx="15.104166666666664" ry="15.104166666666664" fill="#ff9d00" stroke="none" pointer-events="all"/><ellipse cx="624.08" cy="25.1" rx="15.104166666666664" ry="15.104166666666664" fill="#733900" stroke="none" pointer-events="all"/><ellipse cx="476.39" cy="139.9" rx="15.104166666666664" ry="15.104166666666664" fill="#d68400" stroke="none" pointer-events="all"/><ellipse cx="25.1" cy="25.1" rx="15.104166666666664" ry="15.104166666666664" fill="#ffcc99" stroke="none" pointer-events="all"/><ellipse cx="320.49" cy="269.79" rx="15.104166666666664" ry="15.104166666666664" fill="#592c00" stroke="none" pointer-events="all"/><ellipse cx="320.49" cy="182.19" rx="15.104166666666664" ry="15.104166666666664" fill="#a16300" stroke="none" pointer-events="all"/><ellipse cx="583.05" cy="139.9" rx="15.104166666666664" ry="15.104166666666664" fill="#cca37a" stroke="none" pointer-events="all"/><ellipse cx="361.51" cy="31.15" rx="15.104166666666664" ry="15.104166666666664" fill="#ff7f00" stroke="none" pointer-events="all"/><ellipse cx="57.92" cy="121.77" rx="15.104166666666664" ry="15.104166666666664" fill="#c77900" stroke="none" pointer-events="all"/><ellipse cx="25.1" cy="284.9" rx="15.104166666666664" ry="15.104166666666664" fill="#947659" stroke="none" pointer-events="all"/><ellipse cx="624.08" cy="278.85" rx="15.104166666666664" ry="15.104166666666664" fill="#3d2929" stroke="none" pointer-events="all"/><ellipse cx="345.1" cy="103.65" rx="15.104166666666664" ry="15.104166666666664" fill="#b35900" stroke="none" pointer-events="all"/></g></svg>