<svg id="Capa_1" data-name="Capa 1" xmlns="http://www.w3.org/2000/svg" viewBox="0 0 899.18 953.92"><defs><style>.cls-1{fill:gray;}.cls-2{fill:#ffa700;}</style></defs><title>S</title><path class="cls-1" d="M495.49,230.9a61.46,61.46,0,0,1-40.6-15.42,182.32,182.32,0,0,0-120.83-45.67c-101.33,0-183.47,82.17-183.47,183.49s82.14,183.42,183.47,183.42H578.68a61.17,61.17,0,1,1,0,122.33H334.06C165.23,659,28.32,522.14,28.32,353.28S165.23,47.61,334.06,47.54a304.77,304.77,0,0,1,201.8,76.11C578.3,160.94,552,230.9,495.49,230.9Z"/><path class="cls-2" d="M408.38,723.11A61.51,61.51,0,0,1,449,738.51a182.33,182.33,0,0,0,120.81,45.67c101.62,0,183.92-82.72,183.44-184.38-.47-101.3-84.15-182.59-185.47-182.59H325.16a61.15,61.15,0,1,1,0-122.29H569.79c168.82,0,305.78,136.9,305.78,305.75s-137,305.67-305.78,305.75A304.8,304.8,0,0,1,368,830.31C325.58,793.05,351.89,723.11,408.38,723.11Z"/></svg>